<?xml version="1.0" encoding="UTF-8"?>
<svg id="Layer_3" data-name="Layer 3" xmlns="http://www.w3.org/2000/svg" viewBox="0 0 1262 1332.99">
  <defs>
    <style>
      .cls-1 {
        stroke: #000;
        stroke-miterlimit: 10;
      }
    </style>
  </defs>
  <path class="cls-1" d="M131.68,572c83.82-112.5,136.32-141.91,136.32-141.91l32.85,70.95-68.85,50,25,211.91-61.34,28.97v-200.53l-42.59,64.48-21.39-83.87Z"/>
  <path class="cls-1" d="M124.5,595.5c1.03,20.84,4.66,36.85,8,48,2.37,7.91,4.67,13.72,3,21-2.87,12.55-15.65,20.36-26,25-17.66,14.95-38.75,19.3-52,11-7.65-4.79-11.19-12.87-13-17-1.92-4.38-9.47-21.62,0-38,9.62-16.62,28.85-18.64,30.83-18.82,7.66-5.65,16.04-11.44,25.17-17.18,8.28-5.21,16.32-9.86,24-14Z"/>
  <path class="cls-1" d="M180.5,822.5l111.96-19.65s-46,85.65-55.98,130.15-32.03,181.32-13,210.41-57.98,5.09-57.98,5.09c0,0,12.27-172.19-11.37-216.09s26.37-109.91,26.37-109.91Z"/>
  <path class="cls-1" d="M312.5,822.5l59.5,48.08s-45.5,63.44-46,116.68,5,121.24,16.25,131.74-57.25,0-57.25,0c0,0,2.5-43.5-9.5-81.5s-15-127-15-127c0,0,35-81,52-88Z"/>
  <path class="cls-1" d="M461.5,510.5c16.67,1.67,33.33,3.33,50,5,3.68-11,22.29-69.53-6.5-102.67-36.91-42.5-153.14-34.98-180,26.4-18.5,42.27-52.57,198.72-32.54,240,20.04,41.28,59.04,71.28,87.04,73.28,43.82,3.13,96.25-4.81,121.5-42.96,17.96-27.13,16.63-58.57,16.5-61.04-1.36-24.92-13.5-57.1-13.5-57.11h-101.82l-3.18,52.27h54c-3.46,5.84-9.83,14.9-20.5,22.84-3.96,2.95-14.21,10.58-26.55,12.72-24.5,4.25-53.09-13.88-64.03-37.64-6.99-15.17-4.46-30.81.58-62.09,3.16-19.6,5.86-36.34,15-56,7.39-15.89,29.97-64.47,60-62,27.84,2.29,43.3,46.9,44,49Z"/>
  <path class="cls-1" d="M505.16,528.75c4.91.75,71.34,0,71.34,0v59.1l-75.93-7.46,4.59-51.64Z"/>
  <path class="cls-1" d="M555.93,429.45s155.57-.69,173.07-7.14-6,63.77-6,63.77l-59.61,11.28-66.39,276.08s-52.98,6.58-55.74,0,61.17-279.94,61.17-279.94l-64.29.64,17.8-64.69Z"/>
  <path class="cls-1" d="M826.41,429.08c-29.51-7.58-62.04,14.86-69.5,20-7.47,5.15-11.24,9.26-13.53,12.11-13.44,16.77-13.26,37.01-13.47,43.89-1.07,34.79-21.89,44.1-45,110-18.59,53.03-28.98,82.65-15,111,11.42,23.16,37.76,42.74,65,44,73.79,3.41,123.53-129.11,131-149,11.08-29.51,26.16-71.4,13-120-4.08-15.05-17.02-62.89-52.5-72ZM779.91,684.08c-2.1.98-37.01,16.75-53,2-30.96-28.55,24.7-156.97,57-154,11.54,1.06,20.18,18.89,28,35,4.57,9.42,13.57,27.97,11,52-.49,4.59-5.82,47.72-43,65Z"/>
  <path class="cls-1" d="M849.5,363.5c-5.33,4.67-10.67,9.33-16,14,22.22,51.71,44.44,103.43,66.66,155.14l27.36-21.01-11.53-40.24,15.04-12.34-10.93-19.9-15.42,11.84c-9.06-14.5-18.12-29-27.18-43.49,4.33-4.33,8.67-8.67,13-13-13.67-10.33-27.33-20.67-41-31Z"/>
  <path class="cls-1" d="M849.5,363.5c5-6.33,10-12.67,15-19,47.82,35.15,95.64,70.3,143.46,105.44l-27.36,21.01-35.91-21.52-15.8,11.35-16.4-15.7,15.42-11.84c-12.47-12.91-24.94-25.83-37.41-38.74-3.67,5-7.33,10-11,15-10-15.33-20-30.67-30-46Z"/>
  <path class="cls-1" d="M897.71,323.93s53.12-42.89,98.31-41.39c45.19,1.5,110.18,62.04,110.18,62.04-10,12.15-19.99,24.31-29.99,36.46-17.33-10.33-34.67-20.67-52-31,8.17,40.15,16.33,80.3,24.5,120.46h-28.65c-16.95-43.49-33.9-86.97-50.85-130.46-19.33,7.67-38.67,15.33-58,23l-13.5-39.11Z"/>
  <g>
    <path d="M998.3,252.14c-59.54-62.08-152.72-47.76-152.72-47.76-8.49,1.31-80.99,12.05-117.98,68.67-11.14,17.05-18.55,36.79-19.58,57.13-.76,15.06,3.02,31.91,15.5,40.35-.16-44.72,24.34-88.87,62.66-111.92,38.32-23.05,89.12-23.91,127.93-1.68,12.37,7.08,23.87,16.78,29.63,29.82,30.44-19.08,44.3-24.42,50.87-24.79,1.16-.07,6.16-.21,7.17-2.71.98-2.45-2.34-5.92-3.48-7.11Z"/>
    <path d="M999.37,251.08c-12.2-12.68-26.66-23.05-42.48-30.76-14.07-6.86-29.09-11.68-44.43-14.71-12.59-2.49-25.42-3.83-38.25-4.1-8.06-.17-16.14.05-24.16.85-3.23.32-6.43.8-9.62,1.36-8.86,1.57-17.62,3.77-26.21,6.48-13.05,4.12-25.76,9.48-37.69,16.22-14.06,7.95-27.09,17.91-37.92,29.93-13.32,14.78-23.46,32.72-28.6,51.97-2.58,9.67-4.06,19.9-3.43,29.92.54,8.64,2.64,17.53,7.52,24.8,2.33,3.47,5.24,6.43,8.68,8.79.96.66,2.26-.22,2.26-1.3-.03-19.42,4.55-38.74,13-56.21,8.44-17.45,20.62-33.07,35.74-45.22,15.73-12.64,34.59-20.98,54.4-24.65s41.2-2.66,60.8,3.3c9.82,2.98,19.28,7.2,27.99,12.64,8.55,5.35,16.52,12.07,21.99,20.62,1.33,2.08,2.49,4.25,3.5,6.5.32.73,1.42.93,2.05.54,11.45-7.17,23.11-14.28,35.43-19.89,3.14-1.43,6.35-2.75,9.67-3.71,1.16-.34,2.34-.62,3.53-.82.56-.1.44-.08,1.16-.14.76-.06,1.52-.08,2.28-.17,2.66-.31,6.24-1.17,6.82-4.27s-2.09-5.94-4.03-7.96c-1.34-1.4-3.46.73-2.12,2.12,1.07,1.12,4.37,4.26,2.86,5.9-1.21,1.31-3.84,1.26-5.49,1.37-2.21.15-4.38.64-6.49,1.29-8.21,2.52-15.97,6.68-23.45,10.82s-14.56,8.42-21.69,12.89l2.05.54c-8.56-19.13-28.41-31.25-47.29-38.42-19.59-7.45-41.08-9.85-61.86-7.32-20.73,2.52-40.83,9.86-57.92,21.94-16.2,11.45-29.59,26.73-39.17,44.09s-15.47,37-16.59,56.91c-.14,2.45-.2,4.9-.19,7.35l2.26-1.3c-15.28-10.49-16.33-32.27-13.77-48.85,3.08-19.96,11.94-39.04,24.33-54.92,10.02-12.84,22.47-23.63,36.22-32.3,11.8-7.44,24.52-13.38,37.68-17.99,9.36-3.28,18.95-5.92,28.68-7.86,2.54-.51,5.1-.96,7.66-1.36.38-.06.75-.12,1.13-.17.09-.01.17-.02.26-.04.24-.03-.46.06.03,0,.33-.04.67-.08,1-.12,6.52-.78,13.1-1.1,19.66-1.16,11.69-.12,23.4.65,34.96,2.38,14.58,2.19,28.96,5.89,42.65,11.37,15.54,6.22,30.16,14.87,42.82,25.83,3.35,2.9,6.56,5.96,9.63,9.15,1.34,1.39,3.46-.73,2.12-2.12Z"/>
  </g>
  <path class="cls-1" d="M1121.98,370.54l-60.48,94.96s72.56,37.24,96.78,15.12,0-80.66,0-80.66c0,0-19.81-37.39-36.3-29.42Z"/>
  <path class="cls-1" d="M1007.96,252.61c-13.07-12.58-39.5-34.68-79.46-47.11-13.3-4.14-57.39-17.22-109.22-2.54h0c-6.88.14-24.41,8.69-41.78,17.54,0,0-16.29,8.31-34,23-3.55,2.94-6.54,5.7-9.62,9.11-5.63,6.24-8.21,10.99-8.38,10.89-.41-.25,9.91-31.81,35-55,26.52-24.51,58.13-29.15,81.78-32.62,0,0,47.75-7.02,92,8.69,2.29.81,4.06,1.49,5.22,1.93,19.11,7.29,30.5,11.63,43,22,12.4,10.29,45.09,27.89,45,31-.02.78-.61,1.1-4,4-5.58,4.77-5.55,5.22-7.58,6.4-1.63.95-4.25,2.16-7.95,2.71Z"/>
  <path class="cls-1" d="M643.11,802.85l92.37,8.32s-18.02,74.33,0,101.33.02,125,20.02,160-56.19,22.67-56.19,22.67c0,0-3.81-91.67-3.81-107.67s-32.05-105.67-32.05-105.67l-20.34-78.98Z"/>
  <path class="cls-1" d="M744.44,822.5l68-52.35-18.94,118.35,3,45c.54,10.26.8,25.55-1,44-1.66,17.03-4.03,26.01-6,39-2.27,15.02-4.19,36.63-2,64h-16.9s-17.41-29.33-11.76-70.67c5.65-41.33-14.4-108-14.4-108v-79.33Z"/>
</svg>