<?xml version="1.0" encoding="UTF-8"?>
<svg xmlns="http://www.w3.org/2000/svg" viewBox="0 0 1455.43 1018.8">
  <defs>
    <style>
      .cls-1 {
        fill: #fff;
      }

      .cls-2 {
        fill: #052b0b;
      }
    </style>
  </defs>
  <g id="Layer_2" data-name="Layer 2">
    <circle class="cls-2" cx="728" cy="505" r="375"/>
  </g>
  <g id="Layer_4" data-name="Layer 4">
    <path class="cls-1" d="M613,479.51c19.22-9.87,37.66-21.6,53.3-36.5,7.14-6.8,13.65-14.23,20.79-21.03,42.23-40.26,106.56-55.7,162.46-38.97,4.08,1.22,8.2,2.61,12.46,2.64,5.56.04,10.84-2.23,15.99-4.31,2.64-1.07,18.31-5.82,49.83-14.92,12.46-3.6,18.17-5.9,20.65-3.11,3.19,3.59-1.3,12.64-2,14-2.17,4.24-5.15,6.88-11,12-9.82,8.58-14.73,12.88-14.75,12.89-9.84,6.07-23.02,8.4-31.93,13.77-1.72,1.04-3.49,2.31-4.14,4.21-.65,1.88-.05,3.94.55,5.84,10.88,34.29,24.3,67.71,37.71,101.1,10.29,25.6,20.57,51.21,30.86,76.81,1.27,3.16,2.5,6.91.68,9.79-2.71,4.29-10.12,3.38-12.71,7.74-2.5,4.22,1.54,9.69.22,14.41-1.44,5.18-7.81,3.73-9.7,8.69-1.58,4.16,1.65,6.45-.27,10.05-2.28,4.26-8.87,4.89-10,5-2.92.28-2.21-.6-9-1-6.54-.39-11.33.08-12.62.17-5.29.37-13.93-1.15-28.47-9.74-3.94,28.61-7.65,58.97,4.03,85.38-15.39-4.17-27.75-17.89-30.29-33.63-1.61,9.79-3.21,19.57-4.82,29.36-5.68-12.4-11.35-24.8-17.03-37.19-2.42,6.78-4.03,13.84-4.79,21-11.48-18.17-10.52-41.14-13.53-62.42-1.05-7.4-2.77-15.05-7.54-20.8-4.77-5.75-13.4-8.92-19.98-5.39-6.38,3.43-7.48,12.23-8.5,21.54-.87,7.92-1.09,20.68,4.03,36.42-7.3-12.48-14.6-24.95-21.9-37.43-10.9,18.98-17.02,40.7-17.62,62.58-3.17-8.39-7.2-16.45-12.03-24.01.3,6.29.61,12.58.91,18.87-2.96-7.13-5.92-14.26-8.88-21.39-2.02,8.74-2.25,17.89-.68,26.72-3.41-7.3-6.81-14.6-10.22-21.9-1.67,4.74-3.41,11.73-2.57,19.94,1.27,12.41,7.63,19.73,5,22.61-1.39,1.52-5.34,1.87-17-4-7.23-3.93-17.77-9.94-30-18-28.18-18.56-95.41-64.02-121.56-138.39-2.54-7.24-17.45-49.64-4.44-58.61,2.94-2.03,6.32-1.67,8.35-1.54,17.6,1.17,35.11-10.24,72.16-29.26Z"/>
    <path class="cls-1" d="M631.79,257.31c22.1-.16,79.48-1.05,124.6,36.62,19.01,15.87,33.18,36.17,43.1,50.37,10.9,15.62,18.72,29.63,24,40-17.84,1.86-35.68,3.72-53.52,5.57-2.59-9.45-7.33-22.72-16.48-36.57-28.36-42.96-75.06-55.21-92.57-59.8-48.08-12.61-88.88-3.71-110.36,3.79-11.16,3.9-28.56,15.59-40.03,14.26,3.38-5.83,8.9-13.99,17.47-21.94,18.69-17.34,39.9-22.55,59-27,19.22-4.48,35.22-5.22,44.79-5.29Z"/>
    <path class="cls-1" d="M831,385.61c-1.35-1.31-1.78-2.85-2-3.61-1.73-5.83-5.57-10.82-8-16.39-3.44-7.89-18.98-31.64-30-48-13.17-19.56-41.09-47.08-77-59-39.77-13.2-76.58-3.02-77-6.61-.28-2.36,15.68-7.31,32-9.39,59.4-7.6,107.42,24.76,115,30,29.77,20.58,42.18,44.05,67,91,0,0,5.49,10.52,6,25,.28,7.93-1.25,9.14-2,9.39-2.98,1.02-5.66-8.78-14-10.39-3.88-.75-7.3.62-10-2Z"/>
    <path class="cls-1" d="M616,293c4.11-1.74,7.98-1.26,15-.39,7.01.86,10.52,1.3,11,3,.92,3.24-9.29,8.8-19,14-12.01,6.44-27.86,14.93-30,12-.72-.99,4.17-7.34,14-20,3.92-5.06,5.66-7.19,9-8.61Z"/>
  </g>
</svg>